<?xml version="1.0" encoding="utf-8"?>
<!-- Generator: Adobe Illustrator 19.0.1, SVG Export Plug-In . SVG Version: 6.00 Build 0)  -->
<svg version="1.1" id="Layer_1" xmlns="http://www.w3.org/2000/svg" xmlns:xlink="http://www.w3.org/1999/xlink" x="0px" y="0px"
	 viewBox="0 0 140 44.5" enable-background="new 0 0 140 44.5" xml:space="preserve">
<g>
	<g>
		<path fill="#FFFFFF" d="M46.5,16.1h3.7c3.5,0,6,2.4,6,5.6v0c0,3.2-2.4,5.6-6,5.6h-3.7V16.1z M50.3,26.5c3.1,0,5.1-2.1,5.1-4.8v0
			c0-2.7-2-4.8-5.1-4.8h-2.9v9.7H50.3z"/>
		<path fill="#FFFFFF" d="M58.5,21.7L58.5,21.7c0-3.1,2.3-5.8,5.7-5.8c3.4,0,5.6,2.7,5.6,5.8v0c0,3.1-2.3,5.8-5.7,5.8
			C60.8,27.5,58.5,24.8,58.5,21.7z M68.9,21.7L68.9,21.7c0-2.8-2-5.1-4.8-5.1s-4.8,2.2-4.8,5v0c0,2.8,2,5,4.8,5S68.9,24.5,68.9,21.7
			z"/>
		<path fill="#FFFFFF" d="M72.6,16.1h0.8l7.7,9.7v-9.7H82v11.2h-0.6l-7.9-10v10h-0.8V16.1z"/>
		<path fill="#FFFFFF" d="M89.5,16h0.8l5.2,11.3h-0.9l-1.4-3.1h-6.6l-1.4,3.1h-0.9L89.5,16z M92.9,23.4l-2.9-6.5l-3,6.5H92.9z"/>
		<path fill="#FFFFFF" d="M99.6,16.9h-3.9v-0.8h8.6v0.8h-3.9v10.4h-0.8V16.9z"/>
		<path fill="#FFFFFF" d="M106.8,16.1h8v0.8h-7.1v4.4h6.4V22h-6.4v4.5h7.2v0.8h-8.1V16.1z"/>
	</g>
	<path fill="#FFFFFF" d="M129.1,39H9.4V5h119.7V39z M10.4,38h117.7V6H10.4V38z"/>
	<g>
		<path fill="#FFFFFF" d="M29.3,31.8c-0.1,0-0.2,0-0.3-0.1c-0.4-0.2-9.2-6.1-9.2-13.4c0-4,2.4-5.9,4.6-6.1c1.8-0.1,3.8,0.8,4.8,3.2
			c1-2.4,3.1-3.4,5-3.3c2.2,0.2,4.5,2,4.5,5.7c0,6.7-8.8,13.6-9.1,13.9C29.5,31.8,29.4,31.8,29.3,31.8z M24.8,13.2
			c-0.1,0-0.2,0-0.3,0c-1.8,0.1-3.7,1.8-3.7,5.1c0,6,6.9,11.2,8.4,12.3c1.5-1.2,8.5-7.3,8.5-12.8c0-3-1.8-4.5-3.6-4.7
			c-1.8-0.1-3.9,1.1-4.4,4.2c0,0.2-0.2,0.4-0.5,0.4s-0.5-0.2-0.5-0.4C28.4,14.5,26.5,13.2,24.8,13.2z"/>
	</g>
</g>
</svg>
